<svg width="228" height="61" viewBox="0 0 228 61" fill="none" xmlns="http://www.w3.org/2000/svg">
<path d="M78.72 35.48C78.72 33.8 79.056 32.304 79.728 30.992C80.416 29.68 81.392 28.664 82.656 27.944C83.92 27.208 85.408 26.84 87.12 26.84C88.592 26.84 89.904 27.12 91.056 27.68C92.224 28.224 93.168 29 93.888 30.008C94.624 31.016 95.112 32.192 95.352 33.536H89.736C89.48 32.976 89.112 32.544 88.632 32.24C88.168 31.92 87.632 31.76 87.024 31.76C86.128 31.76 85.416 32.096 84.888 32.768C84.376 33.44 84.12 34.344 84.12 35.48C84.12 36.616 84.376 37.52 84.888 38.192C85.416 38.864 86.128 39.2 87.024 39.2C87.632 39.2 88.168 39.048 88.632 38.744C89.112 38.424 89.48 37.984 89.736 37.424H95.352C95.112 38.768 94.624 39.944 93.888 40.952C93.168 41.96 92.224 42.744 91.056 43.304C89.904 43.848 88.592 44.12 87.12 44.12C85.408 44.12 83.92 43.76 82.656 43.04C81.392 42.304 80.416 41.28 79.728 39.968C79.056 38.656 78.72 37.16 78.72 35.48ZM114.382 27.008L108.67 44H101.782L96.0703 27.008H101.734L105.238 38.696L108.718 27.008H114.382ZM140.077 27.008V44H134.773V35.528L132.157 44H127.597L124.981 35.528V44H119.653V27.008H126.181L129.925 37.208L133.573 27.008H140.077ZM141.761 37.232C141.761 35.808 142.001 34.576 142.481 33.536C142.977 32.48 143.649 31.68 144.497 31.136C145.345 30.576 146.297 30.296 147.353 30.296C148.233 30.296 148.993 30.48 149.633 30.848C150.273 31.2 150.761 31.688 151.097 32.312V30.464H156.401V44H151.097V42.152C150.761 42.776 150.273 43.272 149.633 43.64C148.993 43.992 148.233 44.168 147.353 44.168C146.297 44.168 145.345 43.896 144.497 43.352C143.649 42.792 142.977 41.992 142.481 40.952C142.001 39.896 141.761 38.656 141.761 37.232ZM151.097 37.232C151.097 36.512 150.913 35.952 150.545 35.552C150.177 35.152 149.705 34.952 149.129 34.952C148.553 34.952 148.081 35.152 147.713 35.552C147.345 35.952 147.161 36.512 147.161 37.232C147.161 37.952 147.345 38.512 147.713 38.912C148.081 39.312 148.553 39.512 149.129 39.512C149.705 39.512 150.177 39.312 150.545 38.912C150.913 38.512 151.097 37.952 151.097 37.232ZM167.458 44L164.122 38.6V44H158.794V26.24H164.122V35.528L167.506 30.464H173.698L168.634 37.28L173.818 44H167.458ZM188.117 37.112C188.117 37.48 188.093 37.832 188.045 38.168H179.477C179.557 39.336 180.045 39.92 180.941 39.92C181.517 39.92 181.933 39.656 182.189 39.128H187.829C187.637 40.088 187.229 40.952 186.605 41.72C185.997 42.472 185.221 43.072 184.277 43.52C183.349 43.952 182.325 44.168 181.205 44.168C179.861 44.168 178.661 43.888 177.605 43.328C176.565 42.768 175.749 41.968 175.157 40.928C174.581 39.872 174.293 38.64 174.293 37.232C174.293 35.824 174.581 34.6 175.157 33.56C175.749 32.504 176.565 31.696 177.605 31.136C178.661 30.576 179.861 30.296 181.205 30.296C182.549 30.296 183.741 30.576 184.781 31.136C185.837 31.68 186.653 32.464 187.229 33.488C187.821 34.512 188.117 35.72 188.117 37.112ZM182.717 35.84C182.717 35.392 182.573 35.056 182.285 34.832C181.997 34.592 181.637 34.472 181.205 34.472C180.261 34.472 179.709 34.928 179.549 35.84H182.717ZM195.13 32.96C195.674 32.176 196.338 31.552 197.122 31.088C197.906 30.608 198.722 30.368 199.57 30.368V36.056H198.058C197.05 36.056 196.306 36.232 195.826 36.584C195.362 36.936 195.13 37.56 195.13 38.456V44H189.802V30.464H195.13V32.96Z" fill="url(#paint0_linear_35_373)"/>
<path d="M7.18093 0C3.2202 0 0 3.2182 0 7.17647V50.2353C0 54.1936 3.2202 57.4118 7.18093 57.4118H23.5849L24.8079 51.3006C25.2903 48.8673 26.4909 46.6358 28.2412 44.8866L43.0743 30.0627V19.1298C43.0743 17.2235 42.3226 15.3958 40.9762 14.0502L29.0266 2.09687C27.6802 0.751287 25.8513 0 23.9551 0H7.18093ZM36.5217 19.7353H26.0309C24.5386 19.7353 23.338 18.5355 23.338 17.0441V6.55974L36.5217 19.7353ZM30.0926 52.3546L28.7574 59.0377C28.7349 59.1386 28.7237 59.2507 28.7237 59.3629C28.7237 60.2599 29.453 61 30.3619 61C30.4741 61 30.575 60.9888 30.6872 60.9664L37.3745 59.632C38.7658 59.3517 40.0449 58.6676 41.0435 57.6697L54.3843 44.3371L45.4081 35.3665L32.0673 48.6991C31.0687 49.6971 30.3843 50.9754 30.1038 52.3658L30.0926 52.3546ZM60.1403 38.5623C62.6199 36.0842 62.6199 32.0699 60.1403 29.5917C57.6606 27.1136 53.6438 27.1136 51.1641 29.5917L47.9327 32.8211L56.9088 41.7917L60.1403 38.5623Z" fill="url(#paint1_linear_35_373)"/>
<defs>
<linearGradient id="paint0_linear_35_373" x1="78" y1="29.5" x2="228" y2="29.5" gradientUnits="userSpaceOnUse">
<stop stop-color="#257E0A"/>
<stop offset="1" stop-color="#4C9536"/>
</linearGradient>
<linearGradient id="paint1_linear_35_373" x1="62" y1="28.3241" x2="-1.27291e-06" y2="32.6759" gradientUnits="userSpaceOnUse">
<stop stop-color="#257E0A"/>
<stop offset="1" stop-color="#257E0A"/>
</linearGradient>
</defs>
</svg>
